<?xml version="1.0" encoding="iso-8859-1"?>
<!-- Uploaded to: SVG Repo, www.svgrepo.com, Generator: SVG Repo Mixer Tools -->
<svg fill="#000000" height="800px" width="800px" version="1.1" id="Layer_1" xmlns="http://www.w3.org/2000/svg" xmlns:xlink="http://www.w3.org/1999/xlink" 
	 viewBox="0 0 512 512" xml:space="preserve">
<g>
	<g>
		<path d="M411.096,232.649c-4.88-3.415-9.948-6.644-15.177-9.695c1.419-2.913,2.858-5.909,4.321-9.013
			c20.84-44.184,40.175-95.811,44.494-114.509c10.07-43.598-17.209-87.265-60.81-97.336C377.904,0.705,371.741,0,365.608,0
			c-37.972,0-70.466,25.868-79.019,62.904c-4.473,19.365-9.766,75.404-10.259,125.147c-6.722-0.436-13.501-0.665-20.329-0.665
			c-6.828,0-13.607,0.23-20.329,0.665c-0.494-49.743-5.788-105.783-10.259-125.147C216.857,25.868,184.363,0,146.391,0
			c-6.134,0-12.296,0.705-18.315,2.095c-43.6,10.071-70.878,53.736-60.81,97.336c4.319,18.698,23.654,70.324,44.494,114.509
			c1.464,3.104,2.903,6.1,4.321,9.013c-5.229,3.051-10.298,6.28-15.177,9.695c-43.9,30.732-68.077,72.297-68.077,117.044
			c0,44.747,24.177,86.314,68.077,117.044C142.603,495.925,197.683,512,256,512s113.397-16.075,155.096-45.263
			c43.9-30.732,68.077-72.297,68.077-117.044C479.173,304.946,454.996,263.38,411.096,232.649z M317.08,177.66
			c1.109-47.609,6.051-92.675,9.042-105.627c4.279-18.521,20.516-31.456,39.485-31.456c3.066,0,6.156,0.356,9.183,1.054
			c21.801,5.037,35.44,26.867,30.404,48.667c-2.99,12.952-18.314,55.621-38.195,98.894c-2.677,5.828-5.261,11.274-7.753,16.375
			c-13.499-5.094-27.692-9.151-42.376-12.137C316.886,188.44,316.952,183.199,317.08,177.66z M106.803,90.298
			c-5.036-21.799,8.605-43.631,30.404-48.667c3.028-0.699,6.119-1.054,9.184-1.054c18.97,0,35.206,12.936,39.484,31.459
			c2.99,12.951,7.933,58.017,9.042,105.627c0.128,5.539,0.195,10.781,0.21,15.77c-14.685,2.985-28.879,7.043-42.376,12.137
			c-2.493-5.105-5.076-10.55-7.753-16.378C125.117,145.92,109.795,103.25,106.803,90.298z M387.825,433.495
			c-34.941,24.458-81.757,37.929-131.826,37.929s-96.885-13.47-131.826-37.929c-32.739-22.918-50.77-52.678-50.77-83.802
			c0-31.124,18.031-60.884,50.77-83.802c34.941-24.458,81.757-37.929,131.826-37.929s96.885,13.47,131.826,37.929
			c32.739,22.918,50.77,52.678,50.77,83.802C438.596,380.816,420.565,410.577,387.825,433.495z"/>
	</g>
</g>
<g>
	<g>
		<circle cx="168.082" cy="322.64" r="20.288"/>
	</g>
</g>
<g>
	<g>
		<circle cx="343.915" cy="322.64" r="20.288"/>
	</g>
</g>
<g>
	<g>
		<path d="M269.524,383.507h-13.526h-13.526c-7.47,0-13.526,6.055-13.526,13.526c0,13.526,27.051,27.051,27.051,27.051
			s27.051-13.526,27.051-27.051C283.05,389.562,276.994,383.507,269.524,383.507z"/>
	</g>
</g>
</svg>